<?xml version="1.0" encoding="iso-8859-1"?>
<!-- Generator: Adobe Illustrator 19.0.0, SVG Export Plug-In . SVG Version: 6.00 Build 0)  -->
<svg version="1.1" id="Capa_1" xmlns="http://www.w3.org/2000/svg" xmlns:xlink="http://www.w3.org/1999/xlink" x="0px" y="0px"
	 viewBox="0 0 512.499 512.499" style="enable-background:new 0 0 512.499 512.499;" xml:space="preserve">
<path style="fill:#66C6B9;" d="M393.6,75.416v409.6c0,14.933-11.733,26.667-26.667,26.667H26.667
	C11.733,512.749,0,501.016,0,486.083V75.416c0-14.933,11.733-26.667,26.667-26.667h340.267
	C381.867,48.749,393.6,61.549,393.6,75.416z"/>
<rect x="45.867" y="91.416" style="fill:#FFFFFF;" width="301.867" height="375.467"/>
<path style="fill:#415A6B;" d="M281.6,110.616V51.949c0-8.533-6.4-14.933-14.933-14.933h-34.133l0,0c0-19.2-16-36.267-36.267-36.267
	c-19.2,0-35.2,16-35.2,36.267l0,0h-34.133c-8.533,0-14.933,6.4-14.933,14.933v58.667H281.6z M197.333,24.216
	c6.4,0,12.8,5.333,12.8,12.8c0,6.4-5.333,12.8-12.8,12.8c-6.4,0-12.8-5.333-12.8-12.8S189.867,24.216,197.333,24.216z"/>
<path style="fill:#CED6E0;" d="M141.867,220.483H83.2v-58.667h58.667V220.483z M89.6,214.083h46.933v-46.933H89.6V214.083z"/>
<path style="fill:#F3705A;" d="M100.267,211.949c-2.133,0-4.267-1.067-6.4-3.2L70.4,185.283c-3.2-3.2-3.2-9.6,0-12.8
	c3.2-3.2,9.6-3.2,12.8,0l16,16l34.133-34.133c3.2-3.2,9.6-3.2,12.8,0c3.2,3.2,3.2,9.6,0,12.8l-39.467,42.667
	C105.6,210.883,102.4,211.949,100.267,211.949z"/>
<path style="fill:#CED6E0;" d="M141.867,328.216H83.2v-58.667h58.667V328.216z M89.6,322.883h46.933v-46.933H89.6V322.883z"/>
<path style="fill:#F3705A;" d="M100.267,319.683c-2.133,0-4.267-1.067-6.4-3.2L70.4,293.016c-3.2-3.2-3.2-9.6,0-12.8
	c4.267-2.133,9.6-2.133,13.867,1.067l16,16l34.133-34.133c3.2-3.2,9.6-3.2,12.8,0s3.2,9.6,0,12.8l-40.533,41.6
	C105.6,319.683,102.4,319.683,100.267,319.683z"/>
<path style="fill:#CED6E0;" d="M141.867,437.016H83.2v-58.667h58.667V437.016z M89.6,430.616h46.933v-46.933H89.6V430.616z"/>
<path style="fill:#F3705A;" d="M100.267,428.483c-2.133,0-4.267-1.067-6.4-3.2L70.4,401.816c-3.2-3.2-3.2-9.6,0-12.8
	c3.2-3.2,9.6-3.2,12.8,0l17.067,17.067l34.133-34.133c3.2-3.2,9.6-3.2,12.8,0c3.2,3.2,3.2,9.6,0,12.8l-40.533,40.533
	C105.6,427.416,102.4,428.483,100.267,428.483z"/>
<rect x="440.186" y="32.131" transform="matrix(0.5966 -0.8025 0.8025 0.5966 146.9174 398.1517)" style="fill:#415A6B;" width="58.665" height="41.599"/>
<path style="fill:#F3705A;" d="M435.2,61.549c22.4-7.467,53.333,5.333,53.333,5.333l-176,236.8
	c-27.733,37.333-61.867,70.4-101.333,97.067l0,0l0,0c13.867-44.8,36.267-86.4,64-124.8L435.2,61.549z"/>
<rect x="289.379" y="243.836" transform="matrix(-0.5966 0.8025 -0.8025 -0.5966 709.3256 177.0012)" style="fill:#415A6B;" width="41.599" height="45.865"/>
<path style="fill:#F3705A;" d="M477.867,22.083l20.267,14.933l11.733-16c4.267-5.333,3.2-12.8-2.133-17.067l0,0
	c-6.4-5.333-13.867-3.2-18.133,2.133L477.867,22.083z"/>
<path style="fill:#415A6B;" d="M472.533,35.949l-6.4,8.533l-16-11.733l-49.067,61.867c4.267,5.333,1.067,9.6-3.2,16
	c-4.267,6.4-10.667,10.667-17.067,5.333l0,0l0,0c-2.133-2.133-3.2-5.333-1.067-7.467l64-86.4c2.133-2.133,5.333-3.2,7.467-1.067
	L472.533,35.949z"/>
<g>
</g>
<g>
</g>
<g>
</g>
<g>
</g>
<g>
</g>
<g>
</g>
<g>
</g>
<g>
</g>
<g>
</g>
<g>
</g>
<g>
</g>
<g>
</g>
<g>
</g>
<g>
</g>
<g>
</g>
</svg>
